<svg width="800" height="800" viewBox="0 0 800 800" fill="none" xmlns="http://www.w3.org/2000/svg">
<path d="M325.468 176.506C348.88 170.241 373.743 166.667 400 166.667C525.247 166.667 618.8 248.013 674.42 314.645C716.16 364.647 716.153 435.363 674.413 485.363C668.02 493.023 661.123 500.88 653.733 508.783M416.667 301.383C458.543 308.408 491.593 341.457 498.617 383.333M100 100L700 700M383.333 498.617C347.193 492.553 317.628 467.107 305.691 433.333M144.971 292.607C138.071 300.041 131.607 307.425 125.587 314.636C83.8474 364.637 83.8411 435.353 125.58 485.357C181.201 551.987 274.754 633.333 400 633.333C426.737 633.333 452.027 629.627 475.813 623.147" stroke="white" stroke-width="50" stroke-linecap="round" stroke-linejoin="round"/>
</svg>
