<svg width="717" height="584" viewBox="0 0 717 584" fill="none" xmlns="http://www.w3.org/2000/svg">
<path d="M258.333 40.3207C288.718 30.656 322.013 25 358.333 25C497.73 25 592.6 108.319 649.17 181.811C677.5 218.618 691.667 237.02 691.667 291.667C691.667 346.313 677.5 364.717 649.17 401.523C592.6 475.013 497.73 558.333 358.333 558.333C218.937 558.333 124.065 475.013 67.4963 401.523C39.1653 364.717 25 346.313 25 291.667C25 237.02 39.1653 218.618 67.4963 181.811C83.5373 160.971 102.658 139.342 125 119.046" stroke="white" stroke-width="50" stroke-linecap="round"/>
<path d="M458.333 291.667C458.333 346.897 413.563 391.667 358.333 391.667C303.103 391.667 258.333 346.897 258.333 291.667C258.333 236.437 303.103 191.667 358.333 191.667C413.563 191.667 458.333 236.437 458.333 291.667Z" stroke="white" stroke-width="50"/>
</svg>
