<svg xmlns="http://www.w3.org/2000/svg" xmlns:xlink="http://www.w3.org/1999/xlink" viewBox="0 0 286.27 286.27"><defs><style>.cls-1,.cls-2{fill-rule:evenodd;}.cls-1{fill:url(#Degradado_sin_nombre_13);}.cls-2{fill:#fff;}</style><linearGradient id="Degradado_sin_nombre_13" x1="146.46" y1="17.44" x2="146.46" y2="263.55" gradientUnits="userSpaceOnUse"><stop offset="0" stop-color="#4ac14b"/><stop offset="1" stop-color="#06853a"/></linearGradient></defs><g id="Layer_2" data-name="Layer 2"><g id="OBJECTS"><path class="cls-1" d="M146.46,17.44c-68.4,0-124,55.2-124,123.07a121.82,121.82,0,0,0,23.62,72.15L30.57,258.35l47.66-15.14a124,124,0,0,0,68.23,20.34c68.37,0,124-55.2,124-123s-55.64-123.07-124-123.07Z"/><path class="cls-2" d="M286.27,139.45c0,77-62.92,139.44-140.53,139.44a140.66,140.66,0,0,1-67.93-17.35L0,286.27l25.36-74.81a138,138,0,0,1-20.16-72C5.2,62.43,68.12,0,145.74,0S286.27,62.43,286.27,139.45ZM145.74,22.21C80.58,22.21,27.58,74.8,27.58,139.45a116,116,0,0,0,22.51,68.74L35.33,251.72l45.4-14.42a118.12,118.12,0,0,0,65,19.38c65.14,0,118.15-52.59,118.15-117.23s-53-117.24-118.15-117.24Zm71,149.36c-.87-1.43-3.16-2.28-6.6-4s-20.39-10-23.54-11.12-5.47-1.71-7.75,1.71-8.9,11.12-10.92,13.4-4,2.56-7.45.85-14.56-5.32-27.71-16.95a103.94,103.94,0,0,1-19.17-23.68c-2-3.41-.2-5.26,1.51-7,1.55-1.53,3.45-4,5.17-6a23.26,23.26,0,0,0,3.45-5.71,6.21,6.21,0,0,0-.3-6c-.85-1.71-7.75-18.53-10.62-25.38S107,75.19,105,75.19a49.34,49.34,0,0,0-5.72.6s-6.91.85-10.06,4.27-12,11.7-12,28.5,12.33,33.08,14,35.35,23.83,37.93,58.85,51.61,35,9.12,41.34,8.54,20.38-8.26,23.25-16.24,2.88-14.83,2-16.25Z"/></g></g></svg>