<svg width="465" height="434" viewBox="0 0 465 434" fill="none" xmlns="http://www.w3.org/2000/svg">
<path fill-rule="evenodd" clip-rule="evenodd" d="M42.9354 341.165C16.2828 315.233 0 280.574 0 242.5C0 162.143 72.5299 97 162 97C251.47 97 324 162.143 324 242.5C324 322.857 251.47 388 162 388C147.673 388 133.781 386.33 120.552 383.194L54.1401 433.991L42.9354 341.165Z" fill="#58C2CE" fill-opacity="0.86"/>
<path fill-rule="evenodd" clip-rule="evenodd" d="M422.065 244.165C448.717 218.233 465 183.574 465 145.5C465 65.1426 392.47 0 303 0C213.53 0 141 65.1426 141 145.5C141 225.857 213.53 291 303 291C317.327 291 331.219 289.33 344.448 286.194L410.86 336.991L422.065 244.165Z" fill="#FEA150" fill-opacity="0.86"/>
</svg>
